<svg xmlns="http://www.w3.org/2000/svg" xmlns:xlink="http://www.w3.org/1999/xlink" width="573" zoomAndPan="magnify" viewBox="0 0 429.75 119.249998" height="159" preserveAspectRatio="xMidYMid meet" version="1.0"><defs><g/><clipPath id="6aeea64770"><path d="M 1.21875 0.507812 L 119.046875 0.507812 L 119.046875 118.335938 L 1.21875 118.335938 Z M 1.21875 0.507812 " clip-rule="nonzero"/></clipPath><clipPath id="2e293e00ac"><path d="M 9.371094 10.566406 L 111 10.566406 L 111 29.910156 L 9.371094 29.910156 Z M 9.371094 10.566406 " clip-rule="nonzero"/></clipPath><clipPath id="13f615c92c"><path d="M 35 53 L 85 53 L 85 110.484375 L 35 110.484375 Z M 35 53 " clip-rule="nonzero"/></clipPath><clipPath id="0a494fcd71"><path d="M 56 37.398438 L 64 37.398438 L 64 45 L 56 45 Z M 56 37.398438 " clip-rule="nonzero"/></clipPath><clipPath id="c04dadf804"><path d="M 49 37.398438 L 52 37.398438 L 52 40 L 49 40 Z M 49 37.398438 " clip-rule="nonzero"/></clipPath><clipPath id="4de620955b"><path d="M 43 108 L 46 108 L 46 110.484375 L 43 110.484375 Z M 43 108 " clip-rule="nonzero"/></clipPath><clipPath id="4bc4282814"><path d="M 23.46875 75 L 46 75 L 46 110.484375 L 23.46875 110.484375 Z M 23.46875 75 " clip-rule="nonzero"/></clipPath><clipPath id="aec562e59c"><path d="M 68 37.398438 L 71 37.398438 L 71 40 L 68 40 Z M 68 37.398438 " clip-rule="nonzero"/></clipPath><clipPath id="d0d9d30290"><path d="M 74 108 L 77 108 L 77 110.484375 L 74 110.484375 Z M 74 108 " clip-rule="nonzero"/></clipPath><clipPath id="54a8b8c1fa"><path d="M 74 75 L 96.550781 75 L 96.550781 110.484375 L 74 110.484375 Z M 74 75 " clip-rule="nonzero"/></clipPath></defs><g clip-path="url(#6aeea64770)"><path fill="#ffcc00" d="M 119.046875 102.625 C 119.046875 111.265625 111.976562 118.335938 103.335938 118.335938 L 16.929688 118.335938 C 8.289062 118.335938 1.21875 111.265625 1.21875 102.625 L 1.21875 16.21875 C 1.21875 7.574219 8.289062 0.507812 16.929688 0.507812 L 103.335938 0.507812 C 111.976562 0.507812 119.046875 7.574219 119.046875 16.21875 L 119.046875 102.625 " fill-opacity="1" fill-rule="nonzero"/></g><path fill="#000000" d="M 103.335938 2.609375 L 16.929688 2.609375 C 9.347656 2.609375 3.183594 8.773438 3.183594 16.355469 L 3.183594 102.761719 C 3.183594 110.34375 9.347656 116.507812 16.929688 116.507812 L 103.335938 116.507812 C 110.917969 116.507812 117.082031 110.34375 117.082031 102.761719 L 117.082031 16.355469 C 117.082031 8.773438 110.917969 2.609375 103.335938 2.609375 Z M 115.121094 102.761719 C 115.121094 109.261719 109.832031 114.546875 103.335938 114.546875 L 16.929688 114.546875 C 10.433594 114.546875 5.144531 109.261719 5.144531 102.761719 L 5.144531 16.355469 C 5.144531 9.859375 10.433594 4.574219 16.929688 4.574219 L 103.335938 4.574219 C 109.832031 4.574219 115.121094 9.859375 115.121094 16.355469 Z M 54.472656 18.28125 C 54.640625 17.980469 54.722656 17.597656 54.722656 17.140625 C 54.722656 16.632812 54.613281 16.21875 54.394531 15.90625 C 54.175781 15.589844 53.867188 15.390625 53.46875 15.308594 C 53.265625 15.273438 52.667969 15.257812 51.667969 15.257812 L 49.746094 15.257812 L 49.746094 19.113281 L 51.566406 19.113281 C 52.75 19.113281 53.488281 19.050781 53.78125 18.925781 C 54.078125 18.800781 54.308594 18.585938 54.472656 18.28125 Z M 37.25 21.867188 L 40.578125 21.867188 L 38.898438 16.230469 Z M 103.335938 6.535156 L 16.929688 6.535156 C 11.515625 6.535156 7.109375 10.941406 7.109375 16.355469 L 7.109375 34.03125 L 113.15625 34.03125 L 113.15625 16.355469 C 113.15625 10.941406 108.75 6.535156 103.335938 6.535156 Z M 27.367188 27.878906 L 24.9375 16.519531 L 22.515625 27.878906 L 19.84375 27.878906 L 16.929688 12.6875 L 19.449219 12.6875 L 21.289062 23.121094 L 23.519531 12.6875 L 26.449219 12.6875 L 28.589844 23.296875 L 30.460938 12.6875 L 32.941406 12.6875 L 29.980469 27.878906 Z M 42.433594 27.878906 L 41.371094 24.429688 L 36.492188 24.429688 L 35.484375 27.878906 L 32.871094 27.878906 L 37.625 12.6875 L 40.230469 12.6875 L 45.117188 27.878906 Z M 55.304688 27.878906 L 53.523438 24.574219 C 52.894531 23.390625 52.457031 22.648438 52.226562 22.339844 C 51.992188 22.03125 51.746094 21.820312 51.484375 21.707031 C 51.222656 21.59375 50.8125 21.535156 50.246094 21.535156 L 49.746094 21.535156 L 49.746094 27.878906 L 47.28125 27.878906 L 47.28125 12.6875 L 52.46875 12.6875 C 53.773438 12.6875 54.71875 12.824219 55.308594 13.09375 C 55.902344 13.367188 56.375 13.855469 56.730469 14.550781 C 57.085938 15.25 57.261719 16.046875 57.261719 16.945312 C 57.261719 18.085938 56.992188 19.027344 56.453125 19.769531 C 55.917969 20.511719 55.109375 20.980469 54.042969 21.175781 C 54.574219 21.5625 55.011719 21.984375 55.359375 22.449219 C 55.707031 22.910156 56.175781 23.734375 56.761719 24.914062 L 58.253906 27.878906 Z M 70.140625 27.878906 L 67.667969 27.878906 L 62.75 17.972656 L 62.75 27.878906 L 60.460938 27.878906 L 60.460938 12.6875 L 62.859375 12.6875 L 67.851562 22.832031 L 67.851562 12.6875 L 70.140625 12.6875 Z M 75.988281 27.878906 L 73.523438 27.878906 L 73.523438 12.6875 L 75.988281 12.6875 Z M 88.890625 27.878906 L 86.417969 27.878906 L 81.5 17.972656 L 81.5 27.878906 L 79.210938 27.878906 L 79.210938 12.6875 L 81.609375 12.6875 L 86.601562 22.832031 L 86.601562 12.6875 L 88.890625 12.6875 Z M 103.335938 25.785156 C 102.820312 26.40625 102.070312 26.957031 101.09375 27.429688 C 100.113281 27.902344 99.121094 28.136719 98.117188 28.136719 C 96.839844 28.136719 95.726562 27.804688 94.78125 27.136719 C 93.832031 26.472656 93.117188 25.519531 92.640625 24.277344 C 92.164062 23.039062 91.925781 21.6875 91.925781 20.230469 C 91.925781 18.648438 92.191406 17.242188 92.722656 16.015625 C 93.257812 14.785156 94.035156 13.839844 95.0625 13.183594 C 95.84375 12.679688 96.820312 12.425781 97.984375 12.425781 C 99.5 12.425781 100.683594 12.824219 101.535156 13.613281 C 102.386719 14.40625 102.933594 15.5 103.179688 16.894531 L 100.730469 17.464844 C 100.558594 16.71875 100.234375 16.128906 99.761719 15.699219 C 99.289062 15.265625 98.695312 15.050781 97.984375 15.050781 C 96.90625 15.050781 96.050781 15.472656 95.417969 16.324219 C 94.78125 17.171875 94.464844 18.433594 94.464844 20.105469 C 94.464844 21.910156 94.785156 23.261719 95.429688 24.164062 C 96.074219 25.066406 96.914062 25.515625 97.960938 25.515625 C 98.476562 25.515625 98.992188 25.390625 99.511719 25.136719 C 100.03125 24.886719 100.476562 24.582031 100.847656 24.21875 L 100.847656 22.292969 L 98.027344 22.292969 L 98.027344 19.734375 L 103.335938 19.734375 L 103.335938 25.785156 " fill-opacity="1" fill-rule="nonzero"/><g clip-path="url(#2e293e00ac)"><path fill="#000000" d="M 9.371094 10.566406 L 110.953125 10.566406 L 110.953125 30.078125 L 9.371094 30.078125 Z M 9.371094 10.566406 " fill-opacity="1" fill-rule="nonzero"/></g><g fill="#ffcc00" fill-opacity="1"><g transform="translate(11.210521, 23.243942)"><g><path d="M 0.828125 0 L 0.828125 -7.671875 L 2.90625 -7.671875 L 2.90625 0 Z M 0.828125 0 "/></g></g></g><g fill="#ffcc00" fill-opacity="1"><g transform="translate(14.950778, 23.243942)"><g><path d="M 7.34375 -4 C 7.34375 -2.71875 6.988281 -1.726562 6.28125 -1.03125 C 5.582031 -0.34375 4.59375 0 3.3125 0 L 0.828125 0 L 0.828125 -7.671875 L 3.484375 -7.671875 C 4.710938 -7.671875 5.660156 -7.351562 6.328125 -6.71875 C 7.003906 -6.09375 7.34375 -5.1875 7.34375 -4 Z M 5.1875 -3.921875 C 5.1875 -4.628906 5.046875 -5.148438 4.765625 -5.484375 C 4.492188 -5.828125 4.070312 -6 3.5 -6 L 2.90625 -6 L 2.90625 -1.703125 L 3.359375 -1.703125 C 3.992188 -1.703125 4.457031 -1.882812 4.75 -2.25 C 5.039062 -2.613281 5.1875 -3.171875 5.1875 -3.921875 Z M 5.1875 -3.921875 "/></g></g></g><g fill="#ffcc00" fill-opacity="1"><g transform="translate(22.835219, 23.243942)"><g><path d="M 4.171875 0 L 2.609375 -5.53125 L 2.5625 -5.53125 C 2.632812 -4.582031 2.671875 -3.847656 2.671875 -3.328125 L 2.671875 0 L 0.828125 0 L 0.828125 -7.671875 L 3.59375 -7.671875 L 5.1875 -2.21875 L 5.234375 -2.21875 L 6.796875 -7.671875 L 9.5625 -7.671875 L 9.5625 0 L 7.65625 0 L 7.65625 -3.359375 C 7.65625 -3.535156 7.65625 -3.726562 7.65625 -3.9375 C 7.664062 -4.15625 7.695312 -4.679688 7.75 -5.515625 L 7.6875 -5.515625 L 6.140625 0 Z M 4.171875 0 "/></g></g></g><g fill="#ffcc00" fill-opacity="1"><g transform="translate(33.221908, 23.243942)"><g><path d="M 0.21875 -2.0625 L 0.21875 -3.703125 L 3.1875 -3.703125 L 3.1875 -2.0625 Z M 0.21875 -2.0625 "/></g></g></g><g fill="#ffcc00" fill-opacity="1"><g transform="translate(36.636925, 23.243942)"><g><path d="M 7.34375 -4 C 7.34375 -2.71875 6.988281 -1.726562 6.28125 -1.03125 C 5.582031 -0.34375 4.59375 0 3.3125 0 L 0.828125 0 L 0.828125 -7.671875 L 3.484375 -7.671875 C 4.710938 -7.671875 5.660156 -7.351562 6.328125 -6.71875 C 7.003906 -6.09375 7.34375 -5.1875 7.34375 -4 Z M 5.1875 -3.921875 C 5.1875 -4.628906 5.046875 -5.148438 4.765625 -5.484375 C 4.492188 -5.828125 4.070312 -6 3.5 -6 L 2.90625 -6 L 2.90625 -1.703125 L 3.359375 -1.703125 C 3.992188 -1.703125 4.457031 -1.882812 4.75 -2.25 C 5.039062 -2.613281 5.1875 -3.171875 5.1875 -3.921875 Z M 5.1875 -3.921875 "/></g></g></g><g fill="#ffcc00" fill-opacity="1"><g transform="translate(44.521365, 23.243942)"><g><path d="M 5.53125 0 L 5.15625 -1.4375 L 2.671875 -1.4375 L 2.28125 0 L 0 0 L 2.5 -7.703125 L 5.265625 -7.703125 L 7.8125 0 Z M 4.734375 -3.140625 L 4.40625 -4.40625 C 4.320312 -4.675781 4.222656 -5.035156 4.109375 -5.484375 C 4.003906 -5.929688 3.9375 -6.25 3.90625 -6.4375 C 3.875 -6.257812 3.8125 -5.960938 3.71875 -5.546875 C 3.625 -5.140625 3.414062 -4.335938 3.09375 -3.140625 Z M 4.734375 -3.140625 "/></g></g></g><g fill="#ffcc00" fill-opacity="1"><g transform="translate(52.321873, 23.243942)"><g><path d="M 8.015625 -3.84375 C 8.015625 -2.550781 7.695312 -1.566406 7.0625 -0.890625 C 6.425781 -0.222656 5.5 0.109375 4.28125 0.109375 C 3.070312 0.109375 2.144531 -0.226562 1.5 -0.90625 C 0.863281 -1.582031 0.546875 -2.566406 0.546875 -3.859375 C 0.546875 -5.140625 0.863281 -6.113281 1.5 -6.78125 C 2.144531 -7.457031 3.070312 -7.796875 4.28125 -7.796875 C 5.507812 -7.796875 6.4375 -7.460938 7.0625 -6.796875 C 7.695312 -6.128906 8.015625 -5.144531 8.015625 -3.84375 Z M 2.734375 -3.84375 C 2.734375 -2.363281 3.25 -1.625 4.28125 -1.625 C 4.800781 -1.625 5.1875 -1.800781 5.4375 -2.15625 C 5.695312 -2.519531 5.828125 -3.082031 5.828125 -3.84375 C 5.828125 -4.613281 5.695312 -5.179688 5.4375 -5.546875 C 5.1875 -5.910156 4.800781 -6.09375 4.28125 -6.09375 C 3.25 -6.09375 2.734375 -5.34375 2.734375 -3.84375 Z M 2.734375 -3.84375 "/></g></g></g><g fill="#ffcc00" fill-opacity="1"><g transform="translate(60.883023, 23.243942)"><g/></g></g><g fill="#ffcc00" fill-opacity="1"><g transform="translate(63.673789, 23.243942)"><g><path d="M 6.40625 -5.234375 C 6.40625 -4.378906 6.148438 -3.71875 5.640625 -3.25 C 5.128906 -2.78125 4.410156 -2.546875 3.484375 -2.546875 L 2.90625 -2.546875 L 2.90625 0 L 0.828125 0 L 0.828125 -7.671875 L 3.484375 -7.671875 C 4.453125 -7.671875 5.179688 -7.457031 5.671875 -7.03125 C 6.160156 -6.613281 6.40625 -6.015625 6.40625 -5.234375 Z M 2.90625 -4.234375 L 3.28125 -4.234375 C 3.59375 -4.234375 3.835938 -4.320312 4.015625 -4.5 C 4.203125 -4.675781 4.296875 -4.914062 4.296875 -5.21875 C 4.296875 -5.738281 4.007812 -6 3.4375 -6 L 2.90625 -6 Z M 2.90625 -4.234375 "/></g></g></g><g fill="#ffcc00" fill-opacity="1"><g transform="translate(70.461857, 23.243942)"><g><path d="M 2.90625 -2.796875 L 2.90625 0 L 0.828125 0 L 0.828125 -7.671875 L 3.34375 -7.671875 C 5.425781 -7.671875 6.46875 -6.914062 6.46875 -5.40625 C 6.46875 -4.519531 6.035156 -3.832031 5.171875 -3.34375 L 7.40625 0 L 5.0625 0 L 3.421875 -2.796875 Z M 2.90625 -4.34375 L 3.296875 -4.34375 C 4.015625 -4.34375 4.375 -4.664062 4.375 -5.3125 C 4.375 -5.84375 4.019531 -6.109375 3.3125 -6.109375 L 2.90625 -6.109375 Z M 2.90625 -4.34375 "/></g></g></g><g fill="#ffcc00" fill-opacity="1"><g transform="translate(77.732539, 23.243942)"><g><path d="M 8.015625 -3.84375 C 8.015625 -2.550781 7.695312 -1.566406 7.0625 -0.890625 C 6.425781 -0.222656 5.5 0.109375 4.28125 0.109375 C 3.070312 0.109375 2.144531 -0.226562 1.5 -0.90625 C 0.863281 -1.582031 0.546875 -2.566406 0.546875 -3.859375 C 0.546875 -5.140625 0.863281 -6.113281 1.5 -6.78125 C 2.144531 -7.457031 3.070312 -7.796875 4.28125 -7.796875 C 5.507812 -7.796875 6.4375 -7.460938 7.0625 -6.796875 C 7.695312 -6.128906 8.015625 -5.144531 8.015625 -3.84375 Z M 2.734375 -3.84375 C 2.734375 -2.363281 3.25 -1.625 4.28125 -1.625 C 4.800781 -1.625 5.1875 -1.800781 5.4375 -2.15625 C 5.695312 -2.519531 5.828125 -3.082031 5.828125 -3.84375 C 5.828125 -4.613281 5.695312 -5.179688 5.4375 -5.546875 C 5.1875 -5.910156 4.800781 -6.09375 4.28125 -6.09375 C 3.25 -6.09375 2.734375 -5.34375 2.734375 -3.84375 Z M 2.734375 -3.84375 "/></g></g></g><g fill="#ffcc00" fill-opacity="1"><g transform="translate(86.293689, 23.243942)"><g><path d="M 0.21875 2.40625 C -0.15625 2.40625 -0.507812 2.367188 -0.84375 2.296875 L -0.84375 0.6875 C -0.738281 0.707031 -0.617188 0.726562 -0.484375 0.75 C -0.359375 0.78125 -0.222656 0.796875 -0.078125 0.796875 C 0.265625 0.796875 0.507812 0.691406 0.65625 0.484375 C 0.800781 0.273438 0.875 -0.078125 0.875 -0.578125 L 0.875 -7.671875 L 2.953125 -7.671875 L 2.953125 -0.75 C 2.953125 0.289062 2.722656 1.078125 2.265625 1.609375 C 1.816406 2.140625 1.132812 2.40625 0.21875 2.40625 Z M 0.21875 2.40625 "/></g></g></g><g fill="#ffcc00" fill-opacity="1"><g transform="translate(90.075912, 23.243942)"><g><path d="M 5.390625 0 L 0.828125 0 L 0.828125 -7.671875 L 5.390625 -7.671875 L 5.390625 -6.015625 L 2.90625 -6.015625 L 2.90625 -4.796875 L 5.203125 -4.796875 L 5.203125 -3.140625 L 2.90625 -3.140625 L 2.90625 -1.6875 L 5.390625 -1.6875 Z M 5.390625 0 "/></g></g></g><g fill="#ffcc00" fill-opacity="1"><g transform="translate(95.972194, 23.243942)"><g><path d="M 4.25 -6.078125 C 3.75 -6.078125 3.359375 -5.875 3.078125 -5.46875 C 2.804688 -5.070312 2.671875 -4.519531 2.671875 -3.8125 C 2.671875 -2.332031 3.234375 -1.59375 4.359375 -1.59375 C 4.703125 -1.59375 5.03125 -1.640625 5.34375 -1.734375 C 5.664062 -1.828125 5.988281 -1.941406 6.3125 -2.078125 L 6.3125 -0.3125 C 5.664062 -0.03125 4.941406 0.109375 4.140625 0.109375 C 2.984375 0.109375 2.09375 -0.222656 1.46875 -0.890625 C 0.851562 -1.566406 0.546875 -2.539062 0.546875 -3.8125 C 0.546875 -4.601562 0.691406 -5.300781 0.984375 -5.90625 C 1.285156 -6.507812 1.71875 -6.972656 2.28125 -7.296875 C 2.84375 -7.617188 3.503906 -7.78125 4.265625 -7.78125 C 5.097656 -7.78125 5.890625 -7.601562 6.640625 -7.25 L 6.015625 -5.609375 C 5.722656 -5.742188 5.4375 -5.851562 5.15625 -5.9375 C 4.875 -6.03125 4.570312 -6.078125 4.25 -6.078125 Z M 4.25 -6.078125 "/></g></g></g><g fill="#ffcc00" fill-opacity="1"><g transform="translate(102.943865, 23.243942)"><g><path d="M 4.21875 0 L 2.140625 0 L 2.140625 -5.984375 L 0.265625 -5.984375 L 0.265625 -7.671875 L 6.078125 -7.671875 L 6.078125 -5.984375 L 4.21875 -5.984375 Z M 4.21875 0 "/></g></g></g><g clip-path="url(#13f615c92c)"><path fill="#000000" d="M 75.003906 84.183594 C 81.207031 79.457031 84.765625 72.285156 84.765625 64.511719 C 84.765625 60.59375 83.875 56.84375 82.121094 53.371094 L 80.015625 54.433594 C 81.601562 57.574219 82.40625 60.964844 82.40625 64.511719 C 82.40625 71.542969 79.1875 78.03125 73.574219 82.308594 C 70.984375 84.28125 69.441406 87.417969 69.441406 90.703125 L 69.441406 91.621094 L 65.902344 91.621094 L 65.902344 85.039062 L 68.261719 82.679688 L 68.261719 79.835938 L 70.617188 79.835938 L 70.617188 75.121094 L 72.976562 75.121094 L 72.976562 72.761719 L 70.617188 72.761719 L 70.617188 70.40625 L 72.976562 70.40625 L 72.976562 68.046875 L 70.617188 68.046875 L 70.617188 65.691406 L 72.976562 65.691406 L 72.976562 63.332031 L 70.617188 63.332031 L 70.617188 58.617188 L 65.902344 58.617188 L 65.902344 56.261719 L 63.546875 56.261719 L 63.546875 58.617188 L 61.1875 58.617188 L 61.1875 56.261719 L 58.832031 56.261719 L 58.832031 58.617188 L 56.472656 58.617188 L 56.472656 56.261719 L 54.117188 56.261719 L 54.117188 58.617188 L 49.402344 58.617188 L 49.402344 63.332031 L 47.042969 63.332031 L 47.042969 65.691406 L 49.402344 65.691406 L 49.402344 68.046875 L 47.042969 68.046875 L 47.042969 70.40625 L 49.402344 70.40625 L 49.402344 72.761719 L 47.042969 72.761719 L 47.042969 75.121094 L 49.402344 75.121094 L 49.402344 79.835938 L 51.757812 79.835938 L 51.757812 82.679688 L 54.117188 85.039062 L 54.117188 91.621094 L 50.582031 91.621094 L 50.582031 90.703125 C 50.582031 87.417969 49.035156 84.28125 46.445312 82.308594 C 40.828125 78.027344 37.609375 71.539062 37.613281 64.503906 C 37.613281 61.035156 38.460938 57.554688 40.054688 54.441406 L 37.957031 53.363281 C 36.191406 56.8125 35.257812 60.664062 35.257812 64.503906 C 35.253906 72.28125 38.8125 79.453125 45.015625 84.183594 C 47.023438 85.710938 48.222656 88.148438 48.222656 90.703125 L 48.222656 101.054688 C 48.222656 102.351562 49.28125 103.410156 50.582031 103.410156 L 50.910156 103.410156 L 51.132812 104.085938 C 52.410156 107.914062 55.976562 110.484375 60.011719 110.484375 C 64.042969 110.484375 67.609375 107.914062 68.886719 104.085938 L 69.113281 103.410156 L 69.441406 103.410156 C 70.742188 103.410156 71.796875 102.351562 71.796875 101.054688 L 71.796875 90.703125 C 71.796875 88.148438 72.996094 85.710938 75.003906 84.183594 Z M 51.757812 60.976562 L 68.261719 60.976562 L 68.261719 77.476562 L 51.757812 77.476562 Z M 54.117188 81.703125 L 54.117188 79.835938 L 58.832031 79.835938 L 58.832031 82.191406 L 61.1875 82.191406 L 61.1875 79.835938 L 65.902344 79.835938 L 65.902344 81.703125 L 63.546875 84.0625 L 63.546875 91.621094 L 61.1875 91.621094 L 61.1875 84.550781 L 58.832031 84.550781 L 58.832031 91.621094 L 56.472656 91.621094 L 56.472656 84.0625 Z M 69.441406 93.980469 L 69.441406 96.339844 L 50.582031 96.339844 L 50.582031 93.980469 Z M 60.011719 108.125 C 57.019531 108.125 54.375 106.234375 53.402344 103.410156 L 66.621094 103.410156 C 65.644531 106.234375 63.003906 108.125 60.011719 108.125 Z M 50.582031 101.054688 L 50.582031 98.695312 L 69.441406 98.695312 L 69.441406 101.054688 Z M 50.582031 101.054688 " fill-opacity="1" fill-rule="nonzero"/></g><path fill="#000000" d="M 54.117188 75.121094 L 65.902344 75.121094 L 65.902344 63.332031 L 54.117188 63.332031 Z M 56.472656 65.691406 L 63.546875 65.691406 L 63.546875 72.761719 L 56.472656 72.761719 Z M 56.472656 65.691406 " fill-opacity="1" fill-rule="nonzero"/><g clip-path="url(#0a494fcd71)"><path fill="#000000" d="M 60.011719 44.472656 C 61.960938 44.472656 63.546875 42.886719 63.546875 40.9375 C 63.546875 38.988281 61.960938 37.398438 60.011719 37.398438 C 58.0625 37.398438 56.472656 38.988281 56.472656 40.9375 C 56.472656 42.886719 58.0625 44.472656 60.011719 44.472656 Z M 60.011719 39.757812 C 60.660156 39.757812 61.1875 40.285156 61.1875 40.9375 C 61.1875 41.585938 60.660156 42.113281 60.011719 42.113281 C 59.359375 42.113281 58.832031 41.585938 58.832031 40.9375 C 58.832031 40.285156 59.359375 39.757812 60.011719 39.757812 Z M 60.011719 39.757812 " fill-opacity="1" fill-rule="nonzero"/></g><path fill="#000000" d="M 58.832031 46.832031 L 61.1875 46.832031 L 61.1875 53.902344 L 58.832031 53.902344 Z M 58.832031 46.832031 " fill-opacity="1" fill-rule="nonzero"/><g clip-path="url(#c04dadf804)"><path fill="#000000" d="M 49.402344 37.398438 L 51.757812 37.398438 L 51.757812 39.757812 L 49.402344 39.757812 Z M 49.402344 37.398438 " fill-opacity="1" fill-rule="nonzero"/></g><path fill="#000000" d="M 54.117188 53.902344 L 56.472656 53.902344 L 56.472656 46.101562 L 51.757812 43.742188 L 51.757812 42.113281 L 49.402344 42.113281 L 49.402344 45.199219 L 54.117188 47.558594 Z M 54.117188 53.902344 " fill-opacity="1" fill-rule="nonzero"/><path fill="#000000" d="M 49.402344 56.261719 L 51.757812 56.261719 L 51.757812 49.1875 L 39.972656 49.1875 L 39.972656 51.546875 L 49.402344 51.546875 Z M 49.402344 56.261719 " fill-opacity="1" fill-rule="nonzero"/><path fill="#000000" d="M 35.257812 49.1875 L 37.613281 49.1875 L 37.613281 51.546875 L 35.257812 51.546875 Z M 35.257812 49.1875 " fill-opacity="1" fill-rule="nonzero"/><g clip-path="url(#4de620955b)"><path fill="#000000" d="M 43.507812 108.125 L 45.863281 108.125 L 45.863281 110.484375 L 43.507812 110.484375 Z M 43.507812 108.125 " fill-opacity="1" fill-rule="nonzero"/></g><g clip-path="url(#4bc4282814)"><path fill="#000000" d="M 42.328125 98.695312 L 27.003906 98.695312 C 26.355469 98.695312 25.828125 98.167969 25.828125 97.515625 C 25.828125 96.867188 26.355469 96.339844 27.003906 96.339844 L 39.972656 96.339844 C 41.921875 96.339844 43.507812 94.75 43.507812 92.800781 C 43.507812 90.851562 41.921875 89.265625 39.972656 89.265625 L 29.363281 89.265625 C 28.714844 89.265625 28.183594 88.734375 28.183594 88.085938 C 28.183594 87.4375 28.714844 86.90625 29.363281 86.90625 L 35.257812 86.90625 C 37.207031 86.90625 38.792969 85.320312 38.792969 83.371094 C 38.792969 81.421875 37.207031 79.835938 35.257812 79.835938 L 27.003906 79.835938 C 26.355469 79.835938 25.828125 79.304688 25.828125 78.65625 C 25.828125 78.007812 26.355469 77.476562 27.003906 77.476562 L 30.542969 77.476562 L 30.542969 75.121094 L 27.003906 75.121094 C 25.054688 75.121094 23.46875 76.707031 23.46875 78.65625 C 23.46875 80.605469 25.054688 82.191406 27.003906 82.191406 L 35.257812 82.191406 C 35.90625 82.191406 36.433594 82.722656 36.433594 83.371094 C 36.433594 84.019531 35.90625 84.550781 35.257812 84.550781 L 29.363281 84.550781 C 27.414062 84.550781 25.828125 86.136719 25.828125 88.085938 C 25.828125 90.035156 27.414062 91.621094 29.363281 91.621094 L 39.972656 91.621094 C 40.621094 91.621094 41.148438 92.152344 41.148438 92.800781 C 41.148438 93.453125 40.621094 93.980469 39.972656 93.980469 L 27.003906 93.980469 C 25.054688 93.980469 23.46875 95.566406 23.46875 97.515625 C 23.46875 99.464844 25.054688 101.054688 27.003906 101.054688 L 42.328125 101.054688 C 42.976562 101.054688 43.507812 101.582031 43.507812 102.230469 C 43.507812 102.882812 42.976562 103.410156 42.328125 103.410156 L 34.078125 103.410156 C 32.128906 103.410156 30.542969 104.996094 30.542969 106.945312 C 30.542969 108.898438 32.128906 110.484375 34.078125 110.484375 L 41.148438 110.484375 L 41.148438 108.125 L 34.078125 108.125 C 33.429688 108.125 32.898438 107.597656 32.898438 106.945312 C 32.898438 106.296875 33.429688 105.769531 34.078125 105.769531 L 42.328125 105.769531 C 44.277344 105.769531 45.863281 104.179688 45.863281 102.230469 C 45.863281 100.28125 44.277344 98.695312 42.328125 98.695312 Z M 42.328125 98.695312 " fill-opacity="1" fill-rule="nonzero"/></g><g clip-path="url(#aec562e59c)"><path fill="#000000" d="M 68.261719 37.398438 L 70.617188 37.398438 L 70.617188 39.757812 L 68.261719 39.757812 Z M 68.261719 37.398438 " fill-opacity="1" fill-rule="nonzero"/></g><path fill="#000000" d="M 63.546875 53.902344 L 65.902344 53.902344 L 65.902344 47.558594 L 70.617188 45.199219 L 70.617188 42.113281 L 68.261719 42.113281 L 68.261719 43.742188 L 63.546875 46.101562 Z M 63.546875 53.902344 " fill-opacity="1" fill-rule="nonzero"/><path fill="#000000" d="M 68.261719 56.261719 L 70.617188 56.261719 L 70.617188 51.546875 L 80.050781 51.546875 L 80.050781 49.1875 L 68.261719 49.1875 Z M 68.261719 56.261719 " fill-opacity="1" fill-rule="nonzero"/><path fill="#000000" d="M 82.40625 49.1875 L 84.765625 49.1875 L 84.765625 51.546875 L 82.40625 51.546875 Z M 82.40625 49.1875 " fill-opacity="1" fill-rule="nonzero"/><g clip-path="url(#d0d9d30290)"><path fill="#000000" d="M 74.15625 108.125 L 76.511719 108.125 L 76.511719 110.484375 L 74.15625 110.484375 Z M 74.15625 108.125 " fill-opacity="1" fill-rule="nonzero"/></g><g clip-path="url(#54a8b8c1fa)"><path fill="#000000" d="M 93.015625 93.980469 L 80.050781 93.980469 C 79.398438 93.980469 78.871094 93.453125 78.871094 92.800781 C 78.871094 92.152344 79.398438 91.621094 80.050781 91.621094 L 90.65625 91.621094 C 92.609375 91.621094 94.195312 90.035156 94.195312 88.085938 C 94.195312 86.136719 92.609375 84.550781 90.65625 84.550781 L 84.765625 84.550781 C 84.113281 84.550781 83.585938 84.019531 83.585938 83.371094 C 83.585938 82.722656 84.113281 82.191406 84.765625 82.191406 L 93.015625 82.191406 C 94.964844 82.191406 96.550781 80.605469 96.550781 78.65625 C 96.550781 76.707031 94.964844 75.121094 93.015625 75.121094 L 89.480469 75.121094 L 89.480469 77.476562 L 93.015625 77.476562 C 93.664062 77.476562 94.195312 78.007812 94.195312 78.65625 C 94.195312 79.304688 93.664062 79.835938 93.015625 79.835938 L 84.765625 79.835938 C 82.816406 79.835938 81.226562 81.421875 81.226562 83.371094 C 81.226562 85.320312 82.816406 86.90625 84.765625 86.90625 L 90.65625 86.90625 C 91.308594 86.90625 91.835938 87.4375 91.835938 88.085938 C 91.835938 88.734375 91.308594 89.265625 90.65625 89.265625 L 80.050781 89.265625 C 78.097656 89.265625 76.511719 90.851562 76.511719 92.800781 C 76.511719 94.75 78.097656 96.339844 80.050781 96.339844 L 93.015625 96.339844 C 93.664062 96.339844 94.195312 96.867188 94.195312 97.515625 C 94.195312 98.167969 93.664062 98.695312 93.015625 98.695312 L 77.691406 98.695312 C 75.742188 98.695312 74.15625 100.28125 74.15625 102.230469 C 74.15625 104.179688 75.742188 105.769531 77.691406 105.769531 L 85.941406 105.769531 C 86.59375 105.769531 87.121094 106.296875 87.121094 106.945312 C 87.121094 107.597656 86.59375 108.125 85.941406 108.125 L 78.871094 108.125 L 78.871094 110.484375 L 85.941406 110.484375 C 87.894531 110.484375 89.480469 108.898438 89.480469 106.945312 C 89.480469 104.996094 87.894531 103.410156 85.941406 103.410156 L 77.691406 103.410156 C 77.042969 103.410156 76.511719 102.882812 76.511719 102.230469 C 76.511719 101.582031 77.042969 101.054688 77.691406 101.054688 L 93.015625 101.054688 C 94.964844 101.054688 96.550781 99.464844 96.550781 97.515625 C 96.550781 95.566406 94.964844 93.980469 93.015625 93.980469 Z M 93.015625 93.980469 " fill-opacity="1" fill-rule="nonzero"/></g><g fill="#000000" fill-opacity="1"><g transform="translate(120.09003, 78.556462)"><g><path d="M 22.109375 0 L 11.234375 0 L 11.234375 -31.359375 L 1.40625 -31.359375 L 1.40625 -40.25 L 31.90625 -40.25 L 31.90625 -31.359375 L 22.109375 -31.359375 Z M 22.109375 0 "/></g></g></g><g fill="#000000" fill-opacity="1"><g transform="translate(153.389893, 78.556462)"><g><path d="M 14.484375 -42.828125 L 14.484375 -36.75 C 14.484375 -34.4375 14.429688 -32.492188 14.328125 -30.921875 C 14.222656 -29.359375 14.125 -28.160156 14.03125 -27.328125 L 14.53125 -27.328125 C 15.207031 -28.410156 15.976562 -29.273438 16.84375 -29.921875 C 17.707031 -30.566406 18.660156 -31.03125 19.703125 -31.3125 C 20.753906 -31.59375 21.894531 -31.734375 23.125 -31.734375 C 25.175781 -31.734375 27.03125 -31.335938 28.6875 -30.546875 C 30.351562 -29.765625 31.679688 -28.53125 32.671875 -26.84375 C 33.660156 -25.164062 34.15625 -22.976562 34.15625 -20.28125 L 34.15625 0 L 23.34375 0 L 23.34375 -17.015625 C 23.34375 -19.085938 23.039062 -20.648438 22.4375 -21.703125 C 21.832031 -22.753906 20.894531 -23.28125 19.625 -23.28125 C 18.320312 -23.28125 17.296875 -22.910156 16.546875 -22.171875 C 15.796875 -21.429688 15.265625 -20.347656 14.953125 -18.921875 C 14.640625 -17.503906 14.484375 -15.765625 14.484375 -13.703125 L 14.484375 0 L 3.71875 0 L 3.71875 -42.828125 Z M 14.484375 -42.828125 "/></g></g></g><g fill="#000000" fill-opacity="1"><g transform="translate(191.148085, 78.556462)"><g><path d="M 14.53125 -31.1875 L 14.53125 0 L 3.765625 0 L 3.765625 -31.1875 Z M 9.1875 -43.734375 C 10.726562 -43.734375 12.070312 -43.410156 13.21875 -42.765625 C 14.375 -42.128906 14.953125 -40.859375 14.953125 -38.953125 C 14.953125 -37.097656 14.375 -35.84375 13.21875 -35.1875 C 12.070312 -34.539062 10.726562 -34.21875 9.1875 -34.21875 C 7.613281 -34.21875 6.269531 -34.539062 5.15625 -35.1875 C 4.050781 -35.84375 3.5 -37.097656 3.5 -38.953125 C 3.5 -40.859375 4.050781 -42.128906 5.15625 -42.765625 C 6.269531 -43.410156 7.613281 -43.734375 9.1875 -43.734375 Z M 9.1875 -43.734375 "/></g></g></g><g fill="#000000" fill-opacity="1"><g transform="translate(209.47677, 78.556462)"><g><path d="M 23.234375 -31.734375 C 26.441406 -31.734375 29.0625 -30.820312 31.09375 -29 C 33.132812 -27.1875 34.15625 -24.28125 34.15625 -20.28125 L 34.15625 0 L 23.390625 0 L 23.390625 -17.015625 C 23.390625 -19.085938 23.09375 -20.648438 22.5 -21.703125 C 21.90625 -22.753906 20.945312 -23.28125 19.625 -23.28125 C 17.59375 -23.28125 16.226562 -22.453125 15.53125 -20.796875 C 14.832031 -19.140625 14.484375 -16.757812 14.484375 -13.65625 L 14.484375 0 L 3.71875 0 L 3.71875 -31.1875 L 11.84375 -31.1875 L 13.296875 -27.0625 L 13.703125 -27.0625 C 14.367188 -28.050781 15.160156 -28.894531 16.078125 -29.59375 C 16.992188 -30.289062 18.046875 -30.820312 19.234375 -31.1875 C 20.429688 -31.550781 21.765625 -31.734375 23.234375 -31.734375 Z M 23.234375 -31.734375 "/></g></g></g><g fill="#000000" fill-opacity="1"><g transform="translate(247.234962, 78.556462)"><g><path d="M 14.53125 -42.828125 L 14.53125 -25.984375 C 14.53125 -24.722656 14.476562 -23.316406 14.375 -21.765625 C 14.28125 -20.210938 14.128906 -18.800781 13.921875 -17.53125 L 14.15625 -17.53125 C 14.570312 -18.175781 15.097656 -18.984375 15.734375 -19.953125 C 16.378906 -20.929688 16.960938 -21.738281 17.484375 -22.375 L 24.46875 -31.1875 L 36.46875 -31.1875 L 25.65625 -17.921875 L 37.15625 0 L 24.859375 0 L 18.03125 -11.171875 L 14.53125 -8.5 L 14.53125 0 L 3.71875 0 L 3.71875 -42.828125 Z M 14.53125 -42.828125 "/></g></g></g><g fill="#000000" fill-opacity="1"><g transform="translate(284.387702, 78.556462)"><g><path d="M 22.109375 0 L 11.234375 0 L 11.234375 -31.359375 L 1.40625 -31.359375 L 1.40625 -40.25 L 31.90625 -40.25 L 31.90625 -31.359375 L 22.109375 -31.359375 Z M 22.109375 0 "/></g></g></g><g fill="#000000" fill-opacity="1"><g transform="translate(317.687565, 78.556462)"><g><path d="M 18.9375 -31.734375 C 22.882812 -31.734375 25.96875 -30.753906 28.1875 -28.796875 C 30.40625 -26.847656 31.515625 -24.066406 31.515625 -20.453125 L 31.515625 0 L 24.0625 0 L 22 -4.125 L 21.78125 -4.125 C 20.894531 -3.03125 19.988281 -2.132812 19.0625 -1.4375 C 18.132812 -0.75 17.070312 -0.25 15.875 0.0625 C 14.6875 0.382812 13.226562 0.546875 11.5 0.546875 C 9.707031 0.546875 8.09375 0.179688 6.65625 -0.546875 C 5.226562 -1.285156 4.097656 -2.394531 3.265625 -3.875 C 2.441406 -5.363281 2.03125 -7.25 2.03125 -9.53125 C 2.03125 -12.863281 3.1875 -15.335938 5.5 -16.953125 C 7.8125 -18.566406 11.160156 -19.476562 15.546875 -19.6875 L 20.75 -19.84375 L 20.75 -20.28125 C 20.75 -21.675781 20.40625 -22.664062 19.71875 -23.25 C 19.03125 -23.84375 18.109375 -24.140625 16.953125 -24.140625 C 15.722656 -24.140625 14.351562 -23.921875 12.84375 -23.484375 C 11.332031 -23.054688 9.8125 -22.503906 8.28125 -21.828125 L 5.171875 -28.9375 C 6.972656 -29.851562 9.007812 -30.546875 11.28125 -31.015625 C 13.5625 -31.492188 16.113281 -31.734375 18.9375 -31.734375 Z M 20.8125 -13.921875 L 18.328125 -13.8125 C 16.347656 -13.738281 14.957031 -13.394531 14.15625 -12.78125 C 13.363281 -12.164062 12.96875 -11.289062 12.96875 -10.15625 C 12.96875 -9.09375 13.25 -8.304688 13.8125 -7.796875 C 14.382812 -7.296875 15.140625 -7.046875 16.078125 -7.046875 C 17.378906 -7.046875 18.492188 -7.457031 19.421875 -8.28125 C 20.347656 -9.113281 20.8125 -10.1875 20.8125 -11.5 Z M 20.8125 -13.921875 "/></g></g></g><g fill="#000000" fill-opacity="1"><g transform="translate(352.803785, 78.556462)"><g><path d="M 23.234375 -31.734375 C 26.441406 -31.734375 29.0625 -30.820312 31.09375 -29 C 33.132812 -27.1875 34.15625 -24.28125 34.15625 -20.28125 L 34.15625 0 L 23.390625 0 L 23.390625 -17.015625 C 23.390625 -19.085938 23.09375 -20.648438 22.5 -21.703125 C 21.90625 -22.753906 20.945312 -23.28125 19.625 -23.28125 C 17.59375 -23.28125 16.226562 -22.453125 15.53125 -20.796875 C 14.832031 -19.140625 14.484375 -16.757812 14.484375 -13.65625 L 14.484375 0 L 3.71875 0 L 3.71875 -31.1875 L 11.84375 -31.1875 L 13.296875 -27.0625 L 13.703125 -27.0625 C 14.367188 -28.050781 15.160156 -28.894531 16.078125 -29.59375 C 16.992188 -30.289062 18.046875 -30.820312 19.234375 -31.1875 C 20.429688 -31.550781 21.765625 -31.734375 23.234375 -31.734375 Z M 23.234375 -31.734375 "/></g></g></g><g fill="#000000" fill-opacity="1"><g transform="translate(390.561977, 78.556462)"><g><path d="M 14.53125 -42.828125 L 14.53125 -25.984375 C 14.53125 -24.722656 14.476562 -23.316406 14.375 -21.765625 C 14.28125 -20.210938 14.128906 -18.800781 13.921875 -17.53125 L 14.15625 -17.53125 C 14.570312 -18.175781 15.097656 -18.984375 15.734375 -19.953125 C 16.378906 -20.929688 16.960938 -21.738281 17.484375 -22.375 L 24.46875 -31.1875 L 36.46875 -31.1875 L 25.65625 -17.921875 L 37.15625 0 L 24.859375 0 L 18.03125 -11.171875 L 14.53125 -8.5 L 14.53125 0 L 3.71875 0 L 3.71875 -42.828125 Z M 14.53125 -42.828125 "/></g></g></g></svg>